<?xml version="1.0" encoding="UTF-8" standalone="no"?>
<!DOCTYPE svg PUBLIC "-//W3C//DTD SVG 1.1//EN" "http://www.w3.org/Graphics/SVG/1.1/DTD/svg11.dtd">
<svg width="100%" height="100%" viewBox="0 0 35 35" version="1.1" xmlns="http://www.w3.org/2000/svg" xmlns:xlink="http://www.w3.org/1999/xlink" xml:space="preserve" xmlns:serif="http://www.serif.com/" style="fill-rule:evenodd;clip-rule:evenodd;stroke-linejoin:round;stroke-miterlimit:2;">
    <g transform="matrix(3.18182,0,0,3.18182,-28.6364,-38.1818)">
        <path d="M14.18,12.192C14.243,12.074 14.366,12 14.5,12C14.634,12 14.757,12.074 14.82,12.192L16.418,15.203C16.46,15.283 16.515,15.357 16.579,15.421C16.643,15.485 16.717,15.54 16.797,15.582L19.808,17.18C19.926,17.243 20,17.366 20,17.5C20,17.634 19.926,17.757 19.808,17.82L16.797,19.418C16.717,19.46 16.643,19.515 16.579,19.579C16.515,19.643 16.46,19.717 16.418,19.797L14.82,22.808C14.757,22.926 14.634,23 14.5,23C14.366,23 14.243,22.926 14.18,22.808L12.582,19.797C12.54,19.717 12.485,19.643 12.421,19.579C12.357,19.515 12.283,19.46 12.203,19.418L9.192,17.82C9.074,17.757 9,17.634 9,17.5C9,17.366 9.074,17.243 9.192,17.18L12.203,15.582C12.283,15.54 12.357,15.485 12.421,15.421C12.485,15.357 12.54,15.283 12.582,15.203L14.18,12.192Z" style="fill:white;"/>
    </g>
</svg>
