<?xml version="1.0" encoding="UTF-8" standalone="no"?>
<svg
   height="24"
   viewBox="0 -960 960 960"
   width="24"
   fill="#e3e3e3"
   version="1.1"
   id="svg1"
   xml:space="preserve"
   xmlns="http://www.w3.org/2000/svg"
   xmlns:svg="http://www.w3.org/2000/svg"><defs
     id="defs1" /><path
     d="m 506.5,-186 q 43,0 84,-11.5 41,-11.5 78,-33.5 l -155,-155 h -7 q -67,0 -130,21.5 -63,21.5 -116,62.5 50,55 110,85.5 60,30.5 136,30.5 z m 339,132 -118,-118 q -49,32 -105,49 -56,17 -116,17 -83,0 -156,-31.5 -73,-31.5 -127,-85.5 -54,-54 -85.5,-127 -31.5,-73 -31.5,-156 0,-59 16.5,-115 16.5,-56 48.5,-106 l -118,-119 57,-57 792,792 z m -5,-232 -228,-228 q 17,-19 25.5,-42.5 8.5,-23.5 8.5,-49.5 0,-58 -41,-99 -41,-41 -99,-41 -26,0 -49.5,8.5 -23.5,8.5 -42.5,25.5 l -128,-128 q 49,-32 105,-49 56,-17 115,-17 83,0 156,31.5 73,31.5 127,85.5 54,54 85.5,127 31.5,73 31.5,156 0,59 -17,115 -17,56 -49,105 z"
     id="path1"
     style="display:none" /><g
     style="display:inline;fill:#e3e3e3"
     id="g1"
     transform="translate(22,-22)"><path
       d="m 688.56,-168.96 -576,-576 56,-56 576,576 z"
       id="path1-5"
       style="display:inline" /></g><g
     style="display:inline;fill:#e3e3e3"
     id="g2"><path
       id="path1-2"
       style="display:inline"
       d="m 400,-880 c -11.33333,0 -20.84896,3.81771 -28.51562,11.48438 C 363.81771,-860.84896 360,-851.33333 360,-840 v 73.75 L 657.96875,-468.28125 710,-535 c 10,-13.33333 11.31771,-27.5 3.98438,-42.5 -7.33334,-15 -19.34896,-22.5 -36.01563,-22.5 H 600 v -240 c 0,-11.33333 -3.81771,-20.84896 -11.48438,-28.51562 C 580.84896,-876.18229 571.33333,-880 560,-880 Z m -40,226.25 V -600 h -77.96875 c -16.66667,0 -28.68229,7.5 -36.01563,22.5 -7.33333,15 -6.01562,29.16667 3.98438,42.5 l 197.96875,253.98438 c 4,5.33333 8.86458,9.36458 14.53125,12.03124 5.66667,2.66667 11.5,3.98438 17.5,3.98438 6,0 11.83333,-1.31771 17.5,-3.98438 5.66667,-2.66666 10.53125,-6.69791 14.53125,-12.03124 l 96.64063,-124.0625 z M 200,-160 c -11.33333,0 -20.84896,3.81771 -28.51562,11.48438 C 163.81771,-140.84896 160,-131.33333 160,-120 c 0,11.33333 3.81771,20.848958 11.48438,28.515625 C 179.15104,-83.817708 188.66667,-80 200,-80 h 560 c 11.33333,0 20.84896,-3.817708 28.51562,-11.484375 C 796.18229,-99.151042 800,-108.66667 800,-120 c 0,-11.33333 -3.81771,-20.84896 -11.48438,-28.51562 C 780.84896,-156.18229 771.33333,-160 760,-160 Z" /></g></svg>
